<?xml version="1.0" encoding="UTF-8" standalone="no"?>
<!DOCTYPE svg PUBLIC "-//W3C//DTD SVG 1.1//EN"
 "http://www.w3.org/Graphics/SVG/1.1/DTD/svg11.dtd">
<!-- Generated by graphviz version 11.0.0 (0)
 -->
<!-- Title: Tree Pages: 1 -->
<svg width="650pt" height="816pt"
 viewBox="0.00 0.00 649.62 815.50" xmlns="http://www.w3.org/2000/svg" xmlns:xlink="http://www.w3.org/1999/xlink">
<g id="graph0" class="graph" transform="scale(1 1) rotate(0) translate(4 811.5)">
<title>Tree</title>
<polygon fill="white" stroke="none" points="-4,4 -4,-811.5 645.62,-811.5 645.62,4 -4,4"/>
<!-- 0 -->
<g id="node1" class="node">
<title>0</title>
<path fill="#fffefd" stroke="black" d="M311.38,-807.5C311.38,-807.5 175.38,-807.5 175.38,-807.5 169.38,-807.5 163.38,-801.5 163.38,-795.5 163.38,-795.5 163.38,-732.75 163.38,-732.75 163.38,-726.75 169.38,-720.75 175.38,-720.75 175.38,-720.75 311.38,-720.75 311.38,-720.75 317.38,-720.75 323.38,-726.75 323.38,-732.75 323.38,-732.75 323.38,-795.5 323.38,-795.5 323.38,-801.5 317.38,-807.5 311.38,-807.5"/>
<text text-anchor="middle" x="243.38" y="-790.2" font-family="Helvetica,sans-Serif" font-size="14.00">PetalLengthCm &lt;= 2.45</text>
<text text-anchor="middle" x="243.38" y="-774.45" font-family="Helvetica,sans-Serif" font-size="14.00">gini = 0.667</text>
<text text-anchor="middle" x="243.38" y="-758.7" font-family="Helvetica,sans-Serif" font-size="14.00">samples = 135</text>
<text text-anchor="middle" x="243.38" y="-742.95" font-family="Helvetica,sans-Serif" font-size="14.00">value = [46, 45, 44]</text>
<text text-anchor="middle" x="243.38" y="-727.2" font-family="Helvetica,sans-Serif" font-size="14.00">class = Iris&#45;setosa</text>
</g>
<!-- 1 -->
<g id="node2" class="node">
<title>1</title>
<path fill="#e58139" stroke="black" d="M213.75,-676.88C213.75,-676.88 113,-676.88 113,-676.88 107,-676.88 101,-670.88 101,-664.88 101,-664.88 101,-617.88 101,-617.88 101,-611.88 107,-605.88 113,-605.88 113,-605.88 213.75,-605.88 213.75,-605.88 219.75,-605.88 225.75,-611.88 225.75,-617.88 225.75,-617.88 225.75,-664.88 225.75,-664.88 225.75,-670.88 219.75,-676.88 213.75,-676.88"/>
<text text-anchor="middle" x="163.38" y="-659.58" font-family="Helvetica,sans-Serif" font-size="14.00">gini = 0.0</text>
<text text-anchor="middle" x="163.38" y="-643.83" font-family="Helvetica,sans-Serif" font-size="14.00">samples = 46</text>
<text text-anchor="middle" x="163.38" y="-628.08" font-family="Helvetica,sans-Serif" font-size="14.00">value = [46, 0, 0]</text>
<text text-anchor="middle" x="163.38" y="-612.33" font-family="Helvetica,sans-Serif" font-size="14.00">class = Iris&#45;setosa</text>
</g>
<!-- 0&#45;&gt;1 -->
<g id="edge1" class="edge">
<title>0&#45;&gt;1</title>
<path fill="none" stroke="black" d="M215.17,-720.55C207.86,-709.52 199.98,-697.63 192.62,-686.52"/>
<polygon fill="black" stroke="black" points="195.59,-684.67 187.15,-678.27 189.76,-688.53 195.59,-684.67"/>
<text text-anchor="middle" x="181.34" y="-696.08" font-family="Helvetica,sans-Serif" font-size="14.00">True</text>
</g>
<!-- 2 -->
<g id="node3" class="node">
<title>2</title>
<path fill="#fbfefc" stroke="black" d="M391.38,-684.75C391.38,-684.75 255.38,-684.75 255.38,-684.75 249.38,-684.75 243.38,-678.75 243.38,-672.75 243.38,-672.75 243.38,-610 243.38,-610 243.38,-604 249.38,-598 255.38,-598 255.38,-598 391.38,-598 391.38,-598 397.38,-598 403.38,-604 403.38,-610 403.38,-610 403.38,-672.75 403.38,-672.75 403.38,-678.75 397.38,-684.75 391.38,-684.75"/>
<text text-anchor="middle" x="323.38" y="-667.45" font-family="Helvetica,sans-Serif" font-size="14.00">PetalLengthCm &lt;= 4.85</text>
<text text-anchor="middle" x="323.38" y="-651.7" font-family="Helvetica,sans-Serif" font-size="14.00">gini = 0.5</text>
<text text-anchor="middle" x="323.38" y="-635.95" font-family="Helvetica,sans-Serif" font-size="14.00">samples = 89</text>
<text text-anchor="middle" x="323.38" y="-620.2" font-family="Helvetica,sans-Serif" font-size="14.00">value = [0, 45, 44]</text>
<text text-anchor="middle" x="323.38" y="-604.45" font-family="Helvetica,sans-Serif" font-size="14.00">class = Iris&#45;versicolor</text>
</g>
<!-- 0&#45;&gt;2 -->
<g id="edge2" class="edge">
<title>0&#45;&gt;2</title>
<path fill="none" stroke="black" d="M271.58,-720.55C277.2,-712.08 283.15,-703.09 288.95,-694.33"/>
<polygon fill="black" stroke="black" points="291.71,-696.5 294.32,-686.23 285.88,-692.63 291.71,-696.5"/>
<text text-anchor="middle" x="300.13" y="-704.04" font-family="Helvetica,sans-Serif" font-size="14.00">False</text>
</g>
<!-- 3 -->
<g id="node4" class="node">
<title>3</title>
<path fill="#42e687" stroke="black" d="M301.38,-562C301.38,-562 171.38,-562 171.38,-562 165.38,-562 159.38,-556 159.38,-550 159.38,-550 159.38,-487.25 159.38,-487.25 159.38,-481.25 165.38,-475.25 171.38,-475.25 171.38,-475.25 301.38,-475.25 301.38,-475.25 307.38,-475.25 313.38,-481.25 313.38,-487.25 313.38,-487.25 313.38,-550 313.38,-550 313.38,-556 307.38,-562 301.38,-562"/>
<text text-anchor="middle" x="236.38" y="-544.7" font-family="Helvetica,sans-Serif" font-size="14.00">PetalWidthCm &lt;= 1.65</text>
<text text-anchor="middle" x="236.38" y="-528.95" font-family="Helvetica,sans-Serif" font-size="14.00">gini = 0.087</text>
<text text-anchor="middle" x="236.38" y="-513.2" font-family="Helvetica,sans-Serif" font-size="14.00">samples = 44</text>
<text text-anchor="middle" x="236.38" y="-497.45" font-family="Helvetica,sans-Serif" font-size="14.00">value = [0, 42, 2]</text>
<text text-anchor="middle" x="236.38" y="-481.7" font-family="Helvetica,sans-Serif" font-size="14.00">class = Iris&#45;versicolor</text>
</g>
<!-- 2&#45;&gt;3 -->
<g id="edge3" class="edge">
<title>2&#45;&gt;3</title>
<path fill="none" stroke="black" d="M292.7,-597.8C286.53,-589.24 279.98,-580.14 273.61,-571.31"/>
<polygon fill="black" stroke="black" points="276.63,-569.51 267.95,-563.45 270.96,-573.61 276.63,-569.51"/>
</g>
<!-- 8 -->
<g id="node9" class="node">
<title>8</title>
<path fill="#8a47e7" stroke="black" d="M474.38,-562C474.38,-562 344.38,-562 344.38,-562 338.38,-562 332.38,-556 332.38,-550 332.38,-550 332.38,-487.25 332.38,-487.25 332.38,-481.25 338.38,-475.25 344.38,-475.25 344.38,-475.25 474.38,-475.25 474.38,-475.25 480.38,-475.25 486.38,-481.25 486.38,-487.25 486.38,-487.25 486.38,-550 486.38,-550 486.38,-556 480.38,-562 474.38,-562"/>
<text text-anchor="middle" x="409.38" y="-544.7" font-family="Helvetica,sans-Serif" font-size="14.00">PetalWidthCm &lt;= 1.75</text>
<text text-anchor="middle" x="409.38" y="-528.95" font-family="Helvetica,sans-Serif" font-size="14.00">gini = 0.124</text>
<text text-anchor="middle" x="409.38" y="-513.2" font-family="Helvetica,sans-Serif" font-size="14.00">samples = 45</text>
<text text-anchor="middle" x="409.38" y="-497.45" font-family="Helvetica,sans-Serif" font-size="14.00">value = [0, 3, 42]</text>
<text text-anchor="middle" x="409.38" y="-481.7" font-family="Helvetica,sans-Serif" font-size="14.00">class = Iris&#45;virginica</text>
</g>
<!-- 2&#45;&gt;8 -->
<g id="edge8" class="edge">
<title>2&#45;&gt;8</title>
<path fill="none" stroke="black" d="M353.7,-597.8C359.73,-589.33 366.14,-580.34 372.37,-571.58"/>
<polygon fill="black" stroke="black" points="375.21,-573.63 378.16,-563.45 369.51,-569.57 375.21,-573.63"/>
</g>
<!-- 4 -->
<g id="node5" class="node">
<title>4</title>
<path fill="#39e581" stroke="black" d="M130.75,-431.38C130.75,-431.38 12,-431.38 12,-431.38 6,-431.38 0,-425.38 0,-419.38 0,-419.38 0,-372.38 0,-372.38 0,-366.38 6,-360.38 12,-360.38 12,-360.38 130.75,-360.38 130.75,-360.38 136.75,-360.38 142.75,-366.38 142.75,-372.38 142.75,-372.38 142.75,-419.38 142.75,-419.38 142.75,-425.38 136.75,-431.38 130.75,-431.38"/>
<text text-anchor="middle" x="71.38" y="-414.07" font-family="Helvetica,sans-Serif" font-size="14.00">gini = 0.0</text>
<text text-anchor="middle" x="71.38" y="-398.32" font-family="Helvetica,sans-Serif" font-size="14.00">samples = 41</text>
<text text-anchor="middle" x="71.38" y="-382.57" font-family="Helvetica,sans-Serif" font-size="14.00">value = [0, 41, 0]</text>
<text text-anchor="middle" x="71.38" y="-366.82" font-family="Helvetica,sans-Serif" font-size="14.00">class = Iris&#45;versicolor</text>
</g>
<!-- 3&#45;&gt;4 -->
<g id="edge4" class="edge">
<title>3&#45;&gt;4</title>
<path fill="none" stroke="black" d="M178.2,-475.05C161.84,-463.08 144.08,-450.08 127.82,-438.18"/>
<polygon fill="black" stroke="black" points="130.32,-435.67 120.18,-432.59 126.18,-441.32 130.32,-435.67"/>
</g>
<!-- 5 -->
<g id="node6" class="node">
<title>5</title>
<path fill="#c09cf2" stroke="black" d="M299.5,-439.25C299.5,-439.25 173.25,-439.25 173.25,-439.25 167.25,-439.25 161.25,-433.25 161.25,-427.25 161.25,-427.25 161.25,-364.5 161.25,-364.5 161.25,-358.5 167.25,-352.5 173.25,-352.5 173.25,-352.5 299.5,-352.5 299.5,-352.5 305.5,-352.5 311.5,-358.5 311.5,-364.5 311.5,-364.5 311.5,-427.25 311.5,-427.25 311.5,-433.25 305.5,-439.25 299.5,-439.25"/>
<text text-anchor="middle" x="236.38" y="-421.95" font-family="Helvetica,sans-Serif" font-size="14.00">SepalWidthCm &lt;= 3.0</text>
<text text-anchor="middle" x="236.38" y="-406.2" font-family="Helvetica,sans-Serif" font-size="14.00">gini = 0.444</text>
<text text-anchor="middle" x="236.38" y="-390.45" font-family="Helvetica,sans-Serif" font-size="14.00">samples = 3</text>
<text text-anchor="middle" x="236.38" y="-374.7" font-family="Helvetica,sans-Serif" font-size="14.00">value = [0, 1, 2]</text>
<text text-anchor="middle" x="236.38" y="-358.95" font-family="Helvetica,sans-Serif" font-size="14.00">class = Iris&#45;virginica</text>
</g>
<!-- 3&#45;&gt;5 -->
<g id="edge5" class="edge">
<title>3&#45;&gt;5</title>
<path fill="none" stroke="black" d="M236.38,-475.05C236.38,-467.21 236.38,-458.92 236.38,-450.79"/>
<polygon fill="black" stroke="black" points="239.88,-450.98 236.38,-440.98 232.88,-450.98 239.88,-450.98"/>
</g>
<!-- 6 -->
<g id="node7" class="node">
<title>6</title>
<path fill="#8139e5" stroke="black" d="M136.62,-308.62C136.62,-308.62 26.12,-308.62 26.12,-308.62 20.12,-308.62 14.12,-302.62 14.12,-296.62 14.12,-296.62 14.12,-249.62 14.12,-249.62 14.12,-243.62 20.12,-237.62 26.12,-237.62 26.12,-237.62 136.62,-237.62 136.62,-237.62 142.62,-237.62 148.62,-243.62 148.62,-249.62 148.62,-249.62 148.62,-296.62 148.62,-296.62 148.62,-302.62 142.62,-308.62 136.62,-308.62"/>
<text text-anchor="middle" x="81.38" y="-291.32" font-family="Helvetica,sans-Serif" font-size="14.00">gini = 0.0</text>
<text text-anchor="middle" x="81.38" y="-275.57" font-family="Helvetica,sans-Serif" font-size="14.00">samples = 2</text>
<text text-anchor="middle" x="81.38" y="-259.82" font-family="Helvetica,sans-Serif" font-size="14.00">value = [0, 0, 2]</text>
<text text-anchor="middle" x="81.38" y="-244.07" font-family="Helvetica,sans-Serif" font-size="14.00">class = Iris&#45;virginica</text>
</g>
<!-- 5&#45;&gt;6 -->
<g id="edge6" class="edge">
<title>5&#45;&gt;6</title>
<path fill="none" stroke="black" d="M181.73,-352.3C166.43,-340.38 149.82,-327.45 134.6,-315.59"/>
<polygon fill="black" stroke="black" points="137.06,-313.07 127.02,-309.68 132.76,-318.59 137.06,-313.07"/>
</g>
<!-- 7 -->
<g id="node8" class="node">
<title>7</title>
<path fill="#39e581" stroke="black" d="M297.75,-308.62C297.75,-308.62 179,-308.62 179,-308.62 173,-308.62 167,-302.62 167,-296.62 167,-296.62 167,-249.62 167,-249.62 167,-243.62 173,-237.62 179,-237.62 179,-237.62 297.75,-237.62 297.75,-237.62 303.75,-237.62 309.75,-243.62 309.75,-249.62 309.75,-249.62 309.75,-296.62 309.75,-296.62 309.75,-302.62 303.75,-308.62 297.75,-308.62"/>
<text text-anchor="middle" x="238.38" y="-291.32" font-family="Helvetica,sans-Serif" font-size="14.00">gini = 0.0</text>
<text text-anchor="middle" x="238.38" y="-275.57" font-family="Helvetica,sans-Serif" font-size="14.00">samples = 1</text>
<text text-anchor="middle" x="238.38" y="-259.82" font-family="Helvetica,sans-Serif" font-size="14.00">value = [0, 1, 0]</text>
<text text-anchor="middle" x="238.38" y="-244.07" font-family="Helvetica,sans-Serif" font-size="14.00">class = Iris&#45;versicolor</text>
</g>
<!-- 5&#45;&gt;7 -->
<g id="edge7" class="edge">
<title>5&#45;&gt;7</title>
<path fill="none" stroke="black" d="M237.08,-352.3C237.25,-341.83 237.44,-330.58 237.62,-319.96"/>
<polygon fill="black" stroke="black" points="241.11,-320.32 237.78,-310.27 234.11,-320.21 241.11,-320.32"/>
</g>
<!-- 9 -->
<g id="node10" class="node">
<title>9</title>
<path fill="#e0cef8" stroke="black" d="M477.38,-439.25C477.38,-439.25 341.38,-439.25 341.38,-439.25 335.38,-439.25 329.38,-433.25 329.38,-427.25 329.38,-427.25 329.38,-364.5 329.38,-364.5 329.38,-358.5 335.38,-352.5 341.38,-352.5 341.38,-352.5 477.38,-352.5 477.38,-352.5 483.38,-352.5 489.38,-358.5 489.38,-364.5 489.38,-364.5 489.38,-427.25 489.38,-427.25 489.38,-433.25 483.38,-439.25 477.38,-439.25"/>
<text text-anchor="middle" x="409.38" y="-421.95" font-family="Helvetica,sans-Serif" font-size="14.00">PetalLengthCm &lt;= 5.35</text>
<text text-anchor="middle" x="409.38" y="-406.2" font-family="Helvetica,sans-Serif" font-size="14.00">gini = 0.49</text>
<text text-anchor="middle" x="409.38" y="-390.45" font-family="Helvetica,sans-Serif" font-size="14.00">samples = 7</text>
<text text-anchor="middle" x="409.38" y="-374.7" font-family="Helvetica,sans-Serif" font-size="14.00">value = [0, 3, 4]</text>
<text text-anchor="middle" x="409.38" y="-358.95" font-family="Helvetica,sans-Serif" font-size="14.00">class = Iris&#45;virginica</text>
</g>
<!-- 8&#45;&gt;9 -->
<g id="edge9" class="edge">
<title>8&#45;&gt;9</title>
<path fill="none" stroke="black" d="M409.38,-475.05C409.38,-467.21 409.38,-458.92 409.38,-450.79"/>
<polygon fill="black" stroke="black" points="412.88,-450.98 409.38,-440.98 405.88,-450.98 412.88,-450.98"/>
</g>
<!-- 16 -->
<g id="node17" class="node">
<title>16</title>
<path fill="#8139e5" stroke="black" d="M629.62,-431.38C629.62,-431.38 519.12,-431.38 519.12,-431.38 513.12,-431.38 507.12,-425.38 507.12,-419.38 507.12,-419.38 507.12,-372.38 507.12,-372.38 507.12,-366.38 513.12,-360.38 519.12,-360.38 519.12,-360.38 629.62,-360.38 629.62,-360.38 635.62,-360.38 641.62,-366.38 641.62,-372.38 641.62,-372.38 641.62,-419.38 641.62,-419.38 641.62,-425.38 635.62,-431.38 629.62,-431.38"/>
<text text-anchor="middle" x="574.38" y="-414.07" font-family="Helvetica,sans-Serif" font-size="14.00">gini = 0.0</text>
<text text-anchor="middle" x="574.38" y="-398.32" font-family="Helvetica,sans-Serif" font-size="14.00">samples = 38</text>
<text text-anchor="middle" x="574.38" y="-382.57" font-family="Helvetica,sans-Serif" font-size="14.00">value = [0, 0, 38]</text>
<text text-anchor="middle" x="574.38" y="-366.82" font-family="Helvetica,sans-Serif" font-size="14.00">class = Iris&#45;virginica</text>
</g>
<!-- 8&#45;&gt;16 -->
<g id="edge16" class="edge">
<title>8&#45;&gt;16</title>
<path fill="none" stroke="black" d="M467.55,-475.05C483.91,-463.08 501.67,-450.08 517.93,-438.18"/>
<polygon fill="black" stroke="black" points="519.57,-441.32 525.57,-432.59 515.43,-435.67 519.57,-441.32"/>
</g>
<!-- 10 -->
<g id="node11" class="node">
<title>10</title>
<path fill="#bdf6d5" stroke="black" d="M472.38,-316.5C472.38,-316.5 342.38,-316.5 342.38,-316.5 336.38,-316.5 330.38,-310.5 330.38,-304.5 330.38,-304.5 330.38,-241.75 330.38,-241.75 330.38,-235.75 336.38,-229.75 342.38,-229.75 342.38,-229.75 472.38,-229.75 472.38,-229.75 478.38,-229.75 484.38,-235.75 484.38,-241.75 484.38,-241.75 484.38,-304.5 484.38,-304.5 484.38,-310.5 478.38,-316.5 472.38,-316.5"/>
<text text-anchor="middle" x="407.38" y="-299.2" font-family="Helvetica,sans-Serif" font-size="14.00">PetalWidthCm &lt;= 1.55</text>
<text text-anchor="middle" x="407.38" y="-283.45" font-family="Helvetica,sans-Serif" font-size="14.00">gini = 0.48</text>
<text text-anchor="middle" x="407.38" y="-267.7" font-family="Helvetica,sans-Serif" font-size="14.00">samples = 5</text>
<text text-anchor="middle" x="407.38" y="-251.95" font-family="Helvetica,sans-Serif" font-size="14.00">value = [0, 3, 2]</text>
<text text-anchor="middle" x="407.38" y="-236.2" font-family="Helvetica,sans-Serif" font-size="14.00">class = Iris&#45;versicolor</text>
</g>
<!-- 9&#45;&gt;10 -->
<g id="edge10" class="edge">
<title>9&#45;&gt;10</title>
<path fill="none" stroke="black" d="M408.67,-352.3C408.54,-344.46 408.4,-336.17 408.27,-328.04"/>
<polygon fill="black" stroke="black" points="411.77,-328.17 408.11,-318.23 404.77,-328.29 411.77,-328.17"/>
</g>
<!-- 15 -->
<g id="node16" class="node">
<title>15</title>
<path fill="#8139e5" stroke="black" d="M624.62,-308.62C624.62,-308.62 514.12,-308.62 514.12,-308.62 508.12,-308.62 502.12,-302.62 502.12,-296.62 502.12,-296.62 502.12,-249.62 502.12,-249.62 502.12,-243.62 508.12,-237.62 514.12,-237.62 514.12,-237.62 624.62,-237.62 624.62,-237.62 630.62,-237.62 636.62,-243.62 636.62,-249.62 636.62,-249.62 636.62,-296.62 636.62,-296.62 636.62,-302.62 630.62,-308.62 624.62,-308.62"/>
<text text-anchor="middle" x="569.38" y="-291.32" font-family="Helvetica,sans-Serif" font-size="14.00">gini = 0.0</text>
<text text-anchor="middle" x="569.38" y="-275.57" font-family="Helvetica,sans-Serif" font-size="14.00">samples = 2</text>
<text text-anchor="middle" x="569.38" y="-259.82" font-family="Helvetica,sans-Serif" font-size="14.00">value = [0, 0, 2]</text>
<text text-anchor="middle" x="569.38" y="-244.07" font-family="Helvetica,sans-Serif" font-size="14.00">class = Iris&#45;virginica</text>
</g>
<!-- 9&#45;&gt;15 -->
<g id="edge15" class="edge">
<title>9&#45;&gt;15</title>
<path fill="none" stroke="black" d="M465.79,-352.3C481.5,-340.44 498.56,-327.57 514.2,-315.76"/>
<polygon fill="black" stroke="black" points="516.15,-318.68 522.02,-309.86 511.93,-313.09 516.15,-318.68"/>
</g>
<!-- 11 -->
<g id="node12" class="node">
<title>11</title>
<path fill="#c09cf2" stroke="black" d="M390.25,-193.75C390.25,-193.75 256.5,-193.75 256.5,-193.75 250.5,-193.75 244.5,-187.75 244.5,-181.75 244.5,-181.75 244.5,-119 244.5,-119 244.5,-113 250.5,-107 256.5,-107 256.5,-107 390.25,-107 390.25,-107 396.25,-107 402.25,-113 402.25,-119 402.25,-119 402.25,-181.75 402.25,-181.75 402.25,-187.75 396.25,-193.75 390.25,-193.75"/>
<text text-anchor="middle" x="323.38" y="-176.45" font-family="Helvetica,sans-Serif" font-size="14.00">SepalWidthCm &lt;= 2.95</text>
<text text-anchor="middle" x="323.38" y="-160.7" font-family="Helvetica,sans-Serif" font-size="14.00">gini = 0.444</text>
<text text-anchor="middle" x="323.38" y="-144.95" font-family="Helvetica,sans-Serif" font-size="14.00">samples = 3</text>
<text text-anchor="middle" x="323.38" y="-129.2" font-family="Helvetica,sans-Serif" font-size="14.00">value = [0, 1, 2]</text>
<text text-anchor="middle" x="323.38" y="-113.45" font-family="Helvetica,sans-Serif" font-size="14.00">class = Iris&#45;virginica</text>
</g>
<!-- 10&#45;&gt;11 -->
<g id="edge11" class="edge">
<title>10&#45;&gt;11</title>
<path fill="none" stroke="black" d="M377.76,-229.55C371.86,-221.08 365.61,-212.09 359.52,-203.33"/>
<polygon fill="black" stroke="black" points="362.45,-201.42 353.87,-195.21 356.71,-205.42 362.45,-201.42"/>
</g>
<!-- 14 -->
<g id="node15" class="node">
<title>14</title>
<path fill="#39e581" stroke="black" d="M550.75,-185.88C550.75,-185.88 432,-185.88 432,-185.88 426,-185.88 420,-179.88 420,-173.88 420,-173.88 420,-126.88 420,-126.88 420,-120.88 426,-114.88 432,-114.88 432,-114.88 550.75,-114.88 550.75,-114.88 556.75,-114.88 562.75,-120.88 562.75,-126.88 562.75,-126.88 562.75,-173.88 562.75,-173.88 562.75,-179.88 556.75,-185.88 550.75,-185.88"/>
<text text-anchor="middle" x="491.38" y="-168.57" font-family="Helvetica,sans-Serif" font-size="14.00">gini = 0.0</text>
<text text-anchor="middle" x="491.38" y="-152.82" font-family="Helvetica,sans-Serif" font-size="14.00">samples = 2</text>
<text text-anchor="middle" x="491.38" y="-137.07" font-family="Helvetica,sans-Serif" font-size="14.00">value = [0, 2, 0]</text>
<text text-anchor="middle" x="491.38" y="-121.33" font-family="Helvetica,sans-Serif" font-size="14.00">class = Iris&#45;versicolor</text>
</g>
<!-- 10&#45;&gt;14 -->
<g id="edge14" class="edge">
<title>10&#45;&gt;14</title>
<path fill="none" stroke="black" d="M436.99,-229.55C444.74,-218.41 453.11,-206.39 460.9,-195.18"/>
<polygon fill="black" stroke="black" points="463.58,-197.45 466.42,-187.25 457.84,-193.46 463.58,-197.45"/>
</g>
<!-- 12 -->
<g id="node13" class="node">
<title>12</title>
<path fill="#8139e5" stroke="black" d="M300.62,-71C300.62,-71 190.12,-71 190.12,-71 184.12,-71 178.12,-65 178.12,-59 178.12,-59 178.12,-12 178.12,-12 178.12,-6 184.12,0 190.12,0 190.12,0 300.62,0 300.62,0 306.62,0 312.62,-6 312.62,-12 312.62,-12 312.62,-59 312.62,-59 312.62,-65 306.62,-71 300.62,-71"/>
<text text-anchor="middle" x="245.38" y="-53.7" font-family="Helvetica,sans-Serif" font-size="14.00">gini = 0.0</text>
<text text-anchor="middle" x="245.38" y="-37.95" font-family="Helvetica,sans-Serif" font-size="14.00">samples = 2</text>
<text text-anchor="middle" x="245.38" y="-22.2" font-family="Helvetica,sans-Serif" font-size="14.00">value = [0, 0, 2]</text>
<text text-anchor="middle" x="245.38" y="-6.45" font-family="Helvetica,sans-Serif" font-size="14.00">class = Iris&#45;virginica</text>
</g>
<!-- 11&#45;&gt;12 -->
<g id="edge12" class="edge">
<title>11&#45;&gt;12</title>
<path fill="none" stroke="black" d="M293.89,-106.7C287.99,-98.17 281.79,-89.2 275.87,-80.62"/>
<polygon fill="black" stroke="black" points="278.75,-78.64 270.18,-72.4 272.99,-82.62 278.75,-78.64"/>
</g>
<!-- 13 -->
<g id="node14" class="node">
<title>13</title>
<path fill="#39e581" stroke="black" d="M461.75,-71C461.75,-71 343,-71 343,-71 337,-71 331,-65 331,-59 331,-59 331,-12 331,-12 331,-6 337,0 343,0 343,0 461.75,0 461.75,0 467.75,0 473.75,-6 473.75,-12 473.75,-12 473.75,-59 473.75,-59 473.75,-65 467.75,-71 461.75,-71"/>
<text text-anchor="middle" x="402.38" y="-53.7" font-family="Helvetica,sans-Serif" font-size="14.00">gini = 0.0</text>
<text text-anchor="middle" x="402.38" y="-37.95" font-family="Helvetica,sans-Serif" font-size="14.00">samples = 1</text>
<text text-anchor="middle" x="402.38" y="-22.2" font-family="Helvetica,sans-Serif" font-size="14.00">value = [0, 1, 0]</text>
<text text-anchor="middle" x="402.38" y="-6.45" font-family="Helvetica,sans-Serif" font-size="14.00">class = Iris&#45;versicolor</text>
</g>
<!-- 11&#45;&gt;13 -->
<g id="edge13" class="edge">
<title>11&#45;&gt;13</title>
<path fill="none" stroke="black" d="M353.24,-106.7C359.27,-98.08 365.63,-89.01 371.69,-80.35"/>
<polygon fill="black" stroke="black" points="374.38,-82.6 377.25,-72.4 368.65,-78.58 374.38,-82.6"/>
</g>
</g>
</svg>