<?xml version="1.0" encoding="UTF-8" standalone="no"?>
<!DOCTYPE svg PUBLIC "-//W3C//DTD SVG 1.1//EN"
 "http://www.w3.org/Graphics/SVG/1.1/DTD/svg11.dtd">
<!-- Generated by graphviz version 11.0.0 (0)
 -->
<!-- Title: Tree Pages: 1 -->
<svg width="807pt" height="816pt"
 viewBox="0.00 0.00 806.62 815.50" xmlns="http://www.w3.org/2000/svg" xmlns:xlink="http://www.w3.org/1999/xlink">
<g id="graph0" class="graph" transform="scale(1 1) rotate(0) translate(4 811.5)">
<title>Tree</title>
<polygon fill="white" stroke="none" points="-4,4 -4,-811.5 802.62,-811.5 802.62,4 -4,4"/>
<!-- 0 -->
<g id="node1" class="node">
<title>0</title>
<path fill="#fffefd" stroke="black" d="M303.62,-807.5C303.62,-807.5 181.12,-807.5 181.12,-807.5 175.12,-807.5 169.12,-801.5 169.12,-795.5 169.12,-795.5 169.12,-732.75 169.12,-732.75 169.12,-726.75 175.12,-720.75 181.12,-720.75 181.12,-720.75 303.62,-720.75 303.62,-720.75 309.62,-720.75 315.62,-726.75 315.62,-732.75 315.62,-732.75 315.62,-795.5 315.62,-795.5 315.62,-801.5 309.62,-807.5 303.62,-807.5"/>
<text text-anchor="middle" x="242.38" y="-790.2" font-family="Helvetica,sans-Serif" font-size="14.00">PetalWidthCm &lt;= 0.8</text>
<text text-anchor="middle" x="242.38" y="-774.45" font-family="Helvetica,sans-Serif" font-size="14.00">gini = 0.667</text>
<text text-anchor="middle" x="242.38" y="-758.7" font-family="Helvetica,sans-Serif" font-size="14.00">samples = 135</text>
<text text-anchor="middle" x="242.38" y="-742.95" font-family="Helvetica,sans-Serif" font-size="14.00">value = [46, 45, 44]</text>
<text text-anchor="middle" x="242.38" y="-727.2" font-family="Helvetica,sans-Serif" font-size="14.00">class = Iris&#45;setosa</text>
</g>
<!-- 1 -->
<g id="node2" class="node">
<title>1</title>
<path fill="#e58139" stroke="black" d="M212.75,-676.88C212.75,-676.88 112,-676.88 112,-676.88 106,-676.88 100,-670.88 100,-664.88 100,-664.88 100,-617.88 100,-617.88 100,-611.88 106,-605.88 112,-605.88 112,-605.88 212.75,-605.88 212.75,-605.88 218.75,-605.88 224.75,-611.88 224.75,-617.88 224.75,-617.88 224.75,-664.88 224.75,-664.88 224.75,-670.88 218.75,-676.88 212.75,-676.88"/>
<text text-anchor="middle" x="162.38" y="-659.58" font-family="Helvetica,sans-Serif" font-size="14.00">gini = 0.0</text>
<text text-anchor="middle" x="162.38" y="-643.83" font-family="Helvetica,sans-Serif" font-size="14.00">samples = 46</text>
<text text-anchor="middle" x="162.38" y="-628.08" font-family="Helvetica,sans-Serif" font-size="14.00">value = [46, 0, 0]</text>
<text text-anchor="middle" x="162.38" y="-612.33" font-family="Helvetica,sans-Serif" font-size="14.00">class = Iris&#45;setosa</text>
</g>
<!-- 0&#45;&gt;1 -->
<g id="edge1" class="edge">
<title>0&#45;&gt;1</title>
<path fill="none" stroke="black" d="M214.17,-720.55C206.86,-709.52 198.98,-697.63 191.62,-686.52"/>
<polygon fill="black" stroke="black" points="194.59,-684.67 186.15,-678.27 188.76,-688.53 194.59,-684.67"/>
<text text-anchor="middle" x="180.34" y="-696.08" font-family="Helvetica,sans-Serif" font-size="14.00">True</text>
</g>
<!-- 2 -->
<g id="node3" class="node">
<title>2</title>
<path fill="#fbfefc" stroke="black" d="M390.38,-684.75C390.38,-684.75 254.38,-684.75 254.38,-684.75 248.38,-684.75 242.38,-678.75 242.38,-672.75 242.38,-672.75 242.38,-610 242.38,-610 242.38,-604 248.38,-598 254.38,-598 254.38,-598 390.38,-598 390.38,-598 396.38,-598 402.38,-604 402.38,-610 402.38,-610 402.38,-672.75 402.38,-672.75 402.38,-678.75 396.38,-684.75 390.38,-684.75"/>
<text text-anchor="middle" x="322.38" y="-667.45" font-family="Helvetica,sans-Serif" font-size="14.00">PetalLengthCm &lt;= 4.85</text>
<text text-anchor="middle" x="322.38" y="-651.7" font-family="Helvetica,sans-Serif" font-size="14.00">gini = 0.5</text>
<text text-anchor="middle" x="322.38" y="-635.95" font-family="Helvetica,sans-Serif" font-size="14.00">samples = 89</text>
<text text-anchor="middle" x="322.38" y="-620.2" font-family="Helvetica,sans-Serif" font-size="14.00">value = [0, 45, 44]</text>
<text text-anchor="middle" x="322.38" y="-604.45" font-family="Helvetica,sans-Serif" font-size="14.00">class = Iris&#45;versicolor</text>
</g>
<!-- 0&#45;&gt;2 -->
<g id="edge2" class="edge">
<title>0&#45;&gt;2</title>
<path fill="none" stroke="black" d="M270.58,-720.55C276.2,-712.08 282.15,-703.09 287.95,-694.33"/>
<polygon fill="black" stroke="black" points="290.71,-696.5 293.32,-686.23 284.88,-692.63 290.71,-696.5"/>
<text text-anchor="middle" x="299.13" y="-704.04" font-family="Helvetica,sans-Serif" font-size="14.00">False</text>
</g>
<!-- 3 -->
<g id="node4" class="node">
<title>3</title>
<path fill="#42e687" stroke="black" d="M301.38,-562C301.38,-562 171.38,-562 171.38,-562 165.38,-562 159.38,-556 159.38,-550 159.38,-550 159.38,-487.25 159.38,-487.25 159.38,-481.25 165.38,-475.25 171.38,-475.25 171.38,-475.25 301.38,-475.25 301.38,-475.25 307.38,-475.25 313.38,-481.25 313.38,-487.25 313.38,-487.25 313.38,-550 313.38,-550 313.38,-556 307.38,-562 301.38,-562"/>
<text text-anchor="middle" x="236.38" y="-544.7" font-family="Helvetica,sans-Serif" font-size="14.00">PetalWidthCm &lt;= 1.65</text>
<text text-anchor="middle" x="236.38" y="-528.95" font-family="Helvetica,sans-Serif" font-size="14.00">gini = 0.087</text>
<text text-anchor="middle" x="236.38" y="-513.2" font-family="Helvetica,sans-Serif" font-size="14.00">samples = 44</text>
<text text-anchor="middle" x="236.38" y="-497.45" font-family="Helvetica,sans-Serif" font-size="14.00">value = [0, 42, 2]</text>
<text text-anchor="middle" x="236.38" y="-481.7" font-family="Helvetica,sans-Serif" font-size="14.00">class = Iris&#45;versicolor</text>
</g>
<!-- 2&#45;&gt;3 -->
<g id="edge3" class="edge">
<title>2&#45;&gt;3</title>
<path fill="none" stroke="black" d="M292.05,-597.8C286.02,-589.33 279.61,-580.34 273.38,-571.58"/>
<polygon fill="black" stroke="black" points="276.24,-569.57 267.59,-563.45 270.54,-573.63 276.24,-569.57"/>
</g>
<!-- 8 -->
<g id="node9" class="node">
<title>8</title>
<path fill="#8a47e7" stroke="black" d="M473.38,-562C473.38,-562 343.38,-562 343.38,-562 337.38,-562 331.38,-556 331.38,-550 331.38,-550 331.38,-487.25 331.38,-487.25 331.38,-481.25 337.38,-475.25 343.38,-475.25 343.38,-475.25 473.38,-475.25 473.38,-475.25 479.38,-475.25 485.38,-481.25 485.38,-487.25 485.38,-487.25 485.38,-550 485.38,-550 485.38,-556 479.38,-562 473.38,-562"/>
<text text-anchor="middle" x="408.38" y="-544.7" font-family="Helvetica,sans-Serif" font-size="14.00">PetalWidthCm &lt;= 1.75</text>
<text text-anchor="middle" x="408.38" y="-528.95" font-family="Helvetica,sans-Serif" font-size="14.00">gini = 0.124</text>
<text text-anchor="middle" x="408.38" y="-513.2" font-family="Helvetica,sans-Serif" font-size="14.00">samples = 45</text>
<text text-anchor="middle" x="408.38" y="-497.45" font-family="Helvetica,sans-Serif" font-size="14.00">value = [0, 3, 42]</text>
<text text-anchor="middle" x="408.38" y="-481.7" font-family="Helvetica,sans-Serif" font-size="14.00">class = Iris&#45;virginica</text>
</g>
<!-- 2&#45;&gt;8 -->
<g id="edge8" class="edge">
<title>2&#45;&gt;8</title>
<path fill="none" stroke="black" d="M352.7,-597.8C358.73,-589.33 365.14,-580.34 371.37,-571.58"/>
<polygon fill="black" stroke="black" points="374.21,-573.63 377.16,-563.45 368.51,-569.57 374.21,-573.63"/>
</g>
<!-- 4 -->
<g id="node5" class="node">
<title>4</title>
<path fill="#39e581" stroke="black" d="M130.75,-431.38C130.75,-431.38 12,-431.38 12,-431.38 6,-431.38 0,-425.38 0,-419.38 0,-419.38 0,-372.38 0,-372.38 0,-366.38 6,-360.38 12,-360.38 12,-360.38 130.75,-360.38 130.75,-360.38 136.75,-360.38 142.75,-366.38 142.75,-372.38 142.75,-372.38 142.75,-419.38 142.75,-419.38 142.75,-425.38 136.75,-431.38 130.75,-431.38"/>
<text text-anchor="middle" x="71.38" y="-414.07" font-family="Helvetica,sans-Serif" font-size="14.00">gini = 0.0</text>
<text text-anchor="middle" x="71.38" y="-398.32" font-family="Helvetica,sans-Serif" font-size="14.00">samples = 41</text>
<text text-anchor="middle" x="71.38" y="-382.57" font-family="Helvetica,sans-Serif" font-size="14.00">value = [0, 41, 0]</text>
<text text-anchor="middle" x="71.38" y="-366.82" font-family="Helvetica,sans-Serif" font-size="14.00">class = Iris&#45;versicolor</text>
</g>
<!-- 3&#45;&gt;4 -->
<g id="edge4" class="edge">
<title>3&#45;&gt;4</title>
<path fill="none" stroke="black" d="M178.2,-475.05C161.84,-463.08 144.08,-450.08 127.82,-438.18"/>
<polygon fill="black" stroke="black" points="130.32,-435.67 120.18,-432.59 126.18,-441.32 130.32,-435.67"/>
</g>
<!-- 5 -->
<g id="node6" class="node">
<title>5</title>
<path fill="#c09cf2" stroke="black" d="M299.5,-439.25C299.5,-439.25 173.25,-439.25 173.25,-439.25 167.25,-439.25 161.25,-433.25 161.25,-427.25 161.25,-427.25 161.25,-364.5 161.25,-364.5 161.25,-358.5 167.25,-352.5 173.25,-352.5 173.25,-352.5 299.5,-352.5 299.5,-352.5 305.5,-352.5 311.5,-358.5 311.5,-364.5 311.5,-364.5 311.5,-427.25 311.5,-427.25 311.5,-433.25 305.5,-439.25 299.5,-439.25"/>
<text text-anchor="middle" x="236.38" y="-421.95" font-family="Helvetica,sans-Serif" font-size="14.00">SepalWidthCm &lt;= 3.0</text>
<text text-anchor="middle" x="236.38" y="-406.2" font-family="Helvetica,sans-Serif" font-size="14.00">gini = 0.444</text>
<text text-anchor="middle" x="236.38" y="-390.45" font-family="Helvetica,sans-Serif" font-size="14.00">samples = 3</text>
<text text-anchor="middle" x="236.38" y="-374.7" font-family="Helvetica,sans-Serif" font-size="14.00">value = [0, 1, 2]</text>
<text text-anchor="middle" x="236.38" y="-358.95" font-family="Helvetica,sans-Serif" font-size="14.00">class = Iris&#45;virginica</text>
</g>
<!-- 3&#45;&gt;5 -->
<g id="edge5" class="edge">
<title>3&#45;&gt;5</title>
<path fill="none" stroke="black" d="M236.38,-475.05C236.38,-467.21 236.38,-458.92 236.38,-450.79"/>
<polygon fill="black" stroke="black" points="239.88,-450.98 236.38,-440.98 232.88,-450.98 239.88,-450.98"/>
</g>
<!-- 6 -->
<g id="node7" class="node">
<title>6</title>
<path fill="#8139e5" stroke="black" d="M138.62,-308.62C138.62,-308.62 28.12,-308.62 28.12,-308.62 22.12,-308.62 16.12,-302.62 16.12,-296.62 16.12,-296.62 16.12,-249.62 16.12,-249.62 16.12,-243.62 22.12,-237.62 28.12,-237.62 28.12,-237.62 138.62,-237.62 138.62,-237.62 144.62,-237.62 150.62,-243.62 150.62,-249.62 150.62,-249.62 150.62,-296.62 150.62,-296.62 150.62,-302.62 144.62,-308.62 138.62,-308.62"/>
<text text-anchor="middle" x="83.38" y="-291.32" font-family="Helvetica,sans-Serif" font-size="14.00">gini = 0.0</text>
<text text-anchor="middle" x="83.38" y="-275.57" font-family="Helvetica,sans-Serif" font-size="14.00">samples = 2</text>
<text text-anchor="middle" x="83.38" y="-259.82" font-family="Helvetica,sans-Serif" font-size="14.00">value = [0, 0, 2]</text>
<text text-anchor="middle" x="83.38" y="-244.07" font-family="Helvetica,sans-Serif" font-size="14.00">class = Iris&#45;virginica</text>
</g>
<!-- 5&#45;&gt;6 -->
<g id="edge6" class="edge">
<title>5&#45;&gt;6</title>
<path fill="none" stroke="black" d="M182.43,-352.3C167.33,-340.38 150.94,-327.45 135.92,-315.59"/>
<polygon fill="black" stroke="black" points="138.46,-313.14 128.44,-309.69 134.12,-318.63 138.46,-313.14"/>
</g>
<!-- 7 -->
<g id="node8" class="node">
<title>7</title>
<path fill="#39e581" stroke="black" d="M299.75,-308.62C299.75,-308.62 181,-308.62 181,-308.62 175,-308.62 169,-302.62 169,-296.62 169,-296.62 169,-249.62 169,-249.62 169,-243.62 175,-237.62 181,-237.62 181,-237.62 299.75,-237.62 299.75,-237.62 305.75,-237.62 311.75,-243.62 311.75,-249.62 311.75,-249.62 311.75,-296.62 311.75,-296.62 311.75,-302.62 305.75,-308.62 299.75,-308.62"/>
<text text-anchor="middle" x="240.38" y="-291.32" font-family="Helvetica,sans-Serif" font-size="14.00">gini = 0.0</text>
<text text-anchor="middle" x="240.38" y="-275.57" font-family="Helvetica,sans-Serif" font-size="14.00">samples = 1</text>
<text text-anchor="middle" x="240.38" y="-259.82" font-family="Helvetica,sans-Serif" font-size="14.00">value = [0, 1, 0]</text>
<text text-anchor="middle" x="240.38" y="-244.07" font-family="Helvetica,sans-Serif" font-size="14.00">class = Iris&#45;versicolor</text>
</g>
<!-- 5&#45;&gt;7 -->
<g id="edge7" class="edge">
<title>5&#45;&gt;7</title>
<path fill="none" stroke="black" d="M237.79,-352.3C238.13,-341.83 238.51,-330.58 238.86,-319.96"/>
<polygon fill="black" stroke="black" points="242.34,-320.38 239.18,-310.27 235.35,-320.14 242.34,-320.38"/>
</g>
<!-- 9 -->
<g id="node10" class="node">
<title>9</title>
<path fill="#e0cef8" stroke="black" d="M475.25,-439.25C475.25,-439.25 341.5,-439.25 341.5,-439.25 335.5,-439.25 329.5,-433.25 329.5,-427.25 329.5,-427.25 329.5,-364.5 329.5,-364.5 329.5,-358.5 335.5,-352.5 341.5,-352.5 341.5,-352.5 475.25,-352.5 475.25,-352.5 481.25,-352.5 487.25,-358.5 487.25,-364.5 487.25,-364.5 487.25,-427.25 487.25,-427.25 487.25,-433.25 481.25,-439.25 475.25,-439.25"/>
<text text-anchor="middle" x="408.38" y="-421.95" font-family="Helvetica,sans-Serif" font-size="14.00">SepalWidthCm &lt;= 2.65</text>
<text text-anchor="middle" x="408.38" y="-406.2" font-family="Helvetica,sans-Serif" font-size="14.00">gini = 0.49</text>
<text text-anchor="middle" x="408.38" y="-390.45" font-family="Helvetica,sans-Serif" font-size="14.00">samples = 7</text>
<text text-anchor="middle" x="408.38" y="-374.7" font-family="Helvetica,sans-Serif" font-size="14.00">value = [0, 3, 4]</text>
<text text-anchor="middle" x="408.38" y="-358.95" font-family="Helvetica,sans-Serif" font-size="14.00">class = Iris&#45;virginica</text>
</g>
<!-- 8&#45;&gt;9 -->
<g id="edge9" class="edge">
<title>8&#45;&gt;9</title>
<path fill="none" stroke="black" d="M408.38,-475.05C408.38,-467.21 408.38,-458.92 408.38,-450.79"/>
<polygon fill="black" stroke="black" points="411.88,-450.98 408.38,-440.98 404.88,-450.98 411.88,-450.98"/>
</g>
<!-- 16 -->
<g id="node17" class="node">
<title>16</title>
<path fill="#8139e5" stroke="black" d="M627.62,-431.38C627.62,-431.38 517.12,-431.38 517.12,-431.38 511.12,-431.38 505.12,-425.38 505.12,-419.38 505.12,-419.38 505.12,-372.38 505.12,-372.38 505.12,-366.38 511.12,-360.38 517.12,-360.38 517.12,-360.38 627.62,-360.38 627.62,-360.38 633.62,-360.38 639.62,-366.38 639.62,-372.38 639.62,-372.38 639.62,-419.38 639.62,-419.38 639.62,-425.38 633.62,-431.38 627.62,-431.38"/>
<text text-anchor="middle" x="572.38" y="-414.07" font-family="Helvetica,sans-Serif" font-size="14.00">gini = 0.0</text>
<text text-anchor="middle" x="572.38" y="-398.32" font-family="Helvetica,sans-Serif" font-size="14.00">samples = 38</text>
<text text-anchor="middle" x="572.38" y="-382.57" font-family="Helvetica,sans-Serif" font-size="14.00">value = [0, 0, 38]</text>
<text text-anchor="middle" x="572.38" y="-366.82" font-family="Helvetica,sans-Serif" font-size="14.00">class = Iris&#45;virginica</text>
</g>
<!-- 8&#45;&gt;16 -->
<g id="edge16" class="edge">
<title>8&#45;&gt;16</title>
<path fill="none" stroke="black" d="M466.2,-475.05C482.31,-463.19 499.79,-450.32 515.82,-438.51"/>
<polygon fill="black" stroke="black" points="517.88,-441.34 523.86,-432.6 513.73,-435.71 517.88,-441.34"/>
</g>
<!-- 10 -->
<g id="node11" class="node">
<title>10</title>
<path fill="#8139e5" stroke="black" d="M459.62,-308.62C459.62,-308.62 349.12,-308.62 349.12,-308.62 343.12,-308.62 337.12,-302.62 337.12,-296.62 337.12,-296.62 337.12,-249.62 337.12,-249.62 337.12,-243.62 343.12,-237.62 349.12,-237.62 349.12,-237.62 459.62,-237.62 459.62,-237.62 465.62,-237.62 471.62,-243.62 471.62,-249.62 471.62,-249.62 471.62,-296.62 471.62,-296.62 471.62,-302.62 465.62,-308.62 459.62,-308.62"/>
<text text-anchor="middle" x="404.38" y="-291.32" font-family="Helvetica,sans-Serif" font-size="14.00">gini = 0.0</text>
<text text-anchor="middle" x="404.38" y="-275.57" font-family="Helvetica,sans-Serif" font-size="14.00">samples = 2</text>
<text text-anchor="middle" x="404.38" y="-259.82" font-family="Helvetica,sans-Serif" font-size="14.00">value = [0, 0, 2]</text>
<text text-anchor="middle" x="404.38" y="-244.07" font-family="Helvetica,sans-Serif" font-size="14.00">class = Iris&#45;virginica</text>
</g>
<!-- 9&#45;&gt;10 -->
<g id="edge10" class="edge">
<title>9&#45;&gt;10</title>
<path fill="none" stroke="black" d="M406.96,-352.3C406.62,-341.83 406.24,-330.58 405.89,-319.96"/>
<polygon fill="black" stroke="black" points="409.4,-320.14 405.57,-310.27 402.41,-320.38 409.4,-320.14"/>
</g>
<!-- 11 -->
<g id="node12" class="node">
<title>11</title>
<path fill="#bdf6d5" stroke="black" d="M637.38,-316.5C637.38,-316.5 501.38,-316.5 501.38,-316.5 495.38,-316.5 489.38,-310.5 489.38,-304.5 489.38,-304.5 489.38,-241.75 489.38,-241.75 489.38,-235.75 495.38,-229.75 501.38,-229.75 501.38,-229.75 637.38,-229.75 637.38,-229.75 643.38,-229.75 649.38,-235.75 649.38,-241.75 649.38,-241.75 649.38,-304.5 649.38,-304.5 649.38,-310.5 643.38,-316.5 637.38,-316.5"/>
<text text-anchor="middle" x="569.38" y="-299.2" font-family="Helvetica,sans-Serif" font-size="14.00">PetalLengthCm &lt;= 5.05</text>
<text text-anchor="middle" x="569.38" y="-283.45" font-family="Helvetica,sans-Serif" font-size="14.00">gini = 0.48</text>
<text text-anchor="middle" x="569.38" y="-267.7" font-family="Helvetica,sans-Serif" font-size="14.00">samples = 5</text>
<text text-anchor="middle" x="569.38" y="-251.95" font-family="Helvetica,sans-Serif" font-size="14.00">value = [0, 3, 2]</text>
<text text-anchor="middle" x="569.38" y="-236.2" font-family="Helvetica,sans-Serif" font-size="14.00">class = Iris&#45;versicolor</text>
</g>
<!-- 9&#45;&gt;11 -->
<g id="edge11" class="edge">
<title>9&#45;&gt;11</title>
<path fill="none" stroke="black" d="M465.14,-352.3C477.45,-343.07 490.57,-333.23 503.21,-323.75"/>
<polygon fill="black" stroke="black" points="505.2,-326.63 511.1,-317.83 501,-321.03 505.2,-326.63"/>
</g>
<!-- 12 -->
<g id="node13" class="node">
<title>12</title>
<path fill="#39e581" stroke="black" d="M544.75,-185.88C544.75,-185.88 426,-185.88 426,-185.88 420,-185.88 414,-179.88 414,-173.88 414,-173.88 414,-126.88 414,-126.88 414,-120.88 420,-114.88 426,-114.88 426,-114.88 544.75,-114.88 544.75,-114.88 550.75,-114.88 556.75,-120.88 556.75,-126.88 556.75,-126.88 556.75,-173.88 556.75,-173.88 556.75,-179.88 550.75,-185.88 544.75,-185.88"/>
<text text-anchor="middle" x="485.38" y="-168.57" font-family="Helvetica,sans-Serif" font-size="14.00">gini = 0.0</text>
<text text-anchor="middle" x="485.38" y="-152.82" font-family="Helvetica,sans-Serif" font-size="14.00">samples = 2</text>
<text text-anchor="middle" x="485.38" y="-137.07" font-family="Helvetica,sans-Serif" font-size="14.00">value = [0, 2, 0]</text>
<text text-anchor="middle" x="485.38" y="-121.33" font-family="Helvetica,sans-Serif" font-size="14.00">class = Iris&#45;versicolor</text>
</g>
<!-- 11&#45;&gt;12 -->
<g id="edge12" class="edge">
<title>11&#45;&gt;12</title>
<path fill="none" stroke="black" d="M539.76,-229.55C532.01,-218.41 523.64,-206.39 515.85,-195.18"/>
<polygon fill="black" stroke="black" points="518.91,-193.46 510.33,-187.25 513.17,-197.45 518.91,-193.46"/>
</g>
<!-- 13 -->
<g id="node14" class="node">
<title>13</title>
<path fill="#c09cf2" stroke="black" d="M720.25,-193.75C720.25,-193.75 586.5,-193.75 586.5,-193.75 580.5,-193.75 574.5,-187.75 574.5,-181.75 574.5,-181.75 574.5,-119 574.5,-119 574.5,-113 580.5,-107 586.5,-107 586.5,-107 720.25,-107 720.25,-107 726.25,-107 732.25,-113 732.25,-119 732.25,-119 732.25,-181.75 732.25,-181.75 732.25,-187.75 726.25,-193.75 720.25,-193.75"/>
<text text-anchor="middle" x="653.38" y="-176.45" font-family="Helvetica,sans-Serif" font-size="14.00">SepalWidthCm &lt;= 2.75</text>
<text text-anchor="middle" x="653.38" y="-160.7" font-family="Helvetica,sans-Serif" font-size="14.00">gini = 0.444</text>
<text text-anchor="middle" x="653.38" y="-144.95" font-family="Helvetica,sans-Serif" font-size="14.00">samples = 3</text>
<text text-anchor="middle" x="653.38" y="-129.2" font-family="Helvetica,sans-Serif" font-size="14.00">value = [0, 1, 2]</text>
<text text-anchor="middle" x="653.38" y="-113.45" font-family="Helvetica,sans-Serif" font-size="14.00">class = Iris&#45;virginica</text>
</g>
<!-- 11&#45;&gt;13 -->
<g id="edge13" class="edge">
<title>11&#45;&gt;13</title>
<path fill="none" stroke="black" d="M598.99,-229.55C604.89,-221.08 611.14,-212.09 617.23,-203.33"/>
<polygon fill="black" stroke="black" points="620.04,-205.42 622.88,-195.21 614.3,-201.42 620.04,-205.42"/>
</g>
<!-- 14 -->
<g id="node15" class="node">
<title>14</title>
<path fill="#39e581" stroke="black" d="M633.75,-71C633.75,-71 515,-71 515,-71 509,-71 503,-65 503,-59 503,-59 503,-12 503,-12 503,-6 509,0 515,0 515,0 633.75,0 633.75,0 639.75,0 645.75,-6 645.75,-12 645.75,-12 645.75,-59 645.75,-59 645.75,-65 639.75,-71 633.75,-71"/>
<text text-anchor="middle" x="574.38" y="-53.7" font-family="Helvetica,sans-Serif" font-size="14.00">gini = 0.0</text>
<text text-anchor="middle" x="574.38" y="-37.95" font-family="Helvetica,sans-Serif" font-size="14.00">samples = 1</text>
<text text-anchor="middle" x="574.38" y="-22.2" font-family="Helvetica,sans-Serif" font-size="14.00">value = [0, 1, 0]</text>
<text text-anchor="middle" x="574.38" y="-6.45" font-family="Helvetica,sans-Serif" font-size="14.00">class = Iris&#45;versicolor</text>
</g>
<!-- 13&#45;&gt;14 -->
<g id="edge14" class="edge">
<title>13&#45;&gt;14</title>
<path fill="none" stroke="black" d="M623.51,-106.7C617.48,-98.08 611.12,-89.01 605.06,-80.35"/>
<polygon fill="black" stroke="black" points="608.1,-78.58 599.5,-72.4 602.37,-82.6 608.1,-78.58"/>
</g>
<!-- 15 -->
<g id="node16" class="node">
<title>15</title>
<path fill="#8139e5" stroke="black" d="M786.62,-71C786.62,-71 676.12,-71 676.12,-71 670.12,-71 664.12,-65 664.12,-59 664.12,-59 664.12,-12 664.12,-12 664.12,-6 670.12,0 676.12,0 676.12,0 786.62,0 786.62,0 792.62,0 798.62,-6 798.62,-12 798.62,-12 798.62,-59 798.62,-59 798.62,-65 792.62,-71 786.62,-71"/>
<text text-anchor="middle" x="731.38" y="-53.7" font-family="Helvetica,sans-Serif" font-size="14.00">gini = 0.0</text>
<text text-anchor="middle" x="731.38" y="-37.95" font-family="Helvetica,sans-Serif" font-size="14.00">samples = 2</text>
<text text-anchor="middle" x="731.38" y="-22.2" font-family="Helvetica,sans-Serif" font-size="14.00">value = [0, 0, 2]</text>
<text text-anchor="middle" x="731.38" y="-6.45" font-family="Helvetica,sans-Serif" font-size="14.00">class = Iris&#45;virginica</text>
</g>
<!-- 13&#45;&gt;15 -->
<g id="edge15" class="edge">
<title>13&#45;&gt;15</title>
<path fill="none" stroke="black" d="M682.86,-106.7C688.76,-98.17 694.96,-89.2 700.88,-80.62"/>
<polygon fill="black" stroke="black" points="703.76,-82.62 706.57,-72.4 698,-78.64 703.76,-82.62"/>
</g>
</g>
</svg>
